<?xml version="1.0" standalone="no"?>
<!DOCTYPE svg PUBLIC "-//W3C//DTD SVG 20010904//EN"
 "http://www.w3.org/TR/2001/REC-SVG-20010904/DTD/svg10.dtd">
<svg version="1.0" xmlns="http://www.w3.org/2000/svg"
 width="1763.000000pt" height="1763.000000pt" viewBox="0 0 1763.000000 1763.000000"
 preserveAspectRatio="xMidYMid meet">
<metadata>
Created by potrace 1.11, written by Peter Selinger 2001-2013
</metadata>
<g transform="translate(0.000000,1763.000000) scale(0.100000,-0.100000)"
fill="#000000" stroke="none">
<path d="M8449 17056 c-2 -2 -53 -7 -114 -11 -115 -8 -137 -10 -220 -19 -27
-4 -70 -9 -95 -11 -25 -3 -70 -10 -100 -15 -30 -5 -68 -11 -85 -14 -314 -48
-701 -142 -990 -243 -55 -19 -107 -36 -115 -38 -32 -8 -252 -96 -390 -155
-184 -79 -455 -216 -635 -321 -135 -78 -169 -100 -320 -198 -186 -122 -478
-344 -650 -495 -218 -191 -498 -474 -631 -636 -16 -19 -34 -39 -40 -45 -18
-17 -165 -203 -249 -315 -144 -194 -329 -481 -434 -673 -18 -34 -49 -91 -69
-127 -20 -36 -37 -67 -37 -70 -1 -3 -13 -29 -29 -59 -97 -188 -254 -566 -329
-796 -41 -124 -86 -272 -93 -300 -1 -5 -16 -62 -32 -125 -34 -127 -97 -428
-107 -505 -4 -28 -8 -57 -10 -65 -2 -8 -7 -37 -10 -65 -4 -27 -8 -57 -10 -65
-2 -8 -6 -40 -10 -70 -3 -30 -8 -71 -10 -90 -3 -19 -8 -64 -10 -100 -3 -36 -7
-84 -10 -107 -21 -196 -21 -778 -1 -953 2 -14 7 -65 11 -115 4 -49 8 -97 10
-105 2 -8 6 -44 10 -80 4 -36 9 -73 11 -83 2 -10 8 -51 13 -90 6 -40 22 -133
36 -207 14 -74 28 -148 31 -165 9 -51 73 -304 105 -412 123 -425 312 -883 520
-1259 488 -883 1160 -1618 1992 -2178 505 -340 1044 -598 1622 -777 185 -58
481 -133 605 -155 14 -2 45 -8 70 -13 116 -24 304 -53 420 -66 163 -18 202
-22 325 -32 184 -15 886 -7 983 12 9 1 55 6 102 10 47 4 87 8 90 10 3 2 35 6
71 9 36 4 76 9 90 11 13 2 51 9 84 14 33 6 78 13 100 16 22 3 46 8 54 11 8 2
30 7 50 10 20 3 42 7 50 10 8 2 30 7 50 10 68 11 427 105 571 150 814 257
1537 662 2210 1238 134 115 499 480 616 616 289 336 524 669 739 1050 69 122
225 438 275 555 23 55 48 114 55 130 124 285 296 867 349 1185 2 14 11 63 19
110 8 47 18 107 22 133 4 27 8 57 10 67 2 10 7 47 11 82 3 35 8 70 9 78 1 8 5
53 9 100 5 47 9 101 11 120 17 173 22 515 11 750 -9 193 -12 235 -32 415 -12
118 -16 145 -24 195 -5 30 -12 73 -15 95 -3 23 -8 52 -10 65 -3 14 -7 39 -10
55 -3 17 -8 41 -10 55 -3 14 -7 36 -10 50 -63 337 -185 750 -325 1100 -209
525 -530 1085 -862 1505 -103 129 -128 160 -228 275 -235 271 -564 585 -815
780 -38 30 -72 57 -75 60 -19 21 -218 162 -385 274 -345 229 -829 477 -1205
616 -47 17 -96 36 -110 42 -117 48 -631 196 -780 223 -14 3 -36 7 -50 10 -14
3 -38 8 -55 10 -16 3 -37 8 -45 10 -8 2 -28 6 -45 9 -182 29 -290 46 -340 51
-33 4 -71 8 -85 11 -14 2 -56 6 -95 10 -38 3 -83 8 -100 11 -37 6 -869 15
-876 9z m731 -380 c58 -4 119 -9 135 -11 17 -2 59 -7 95 -10 161 -13 362 -44
575 -86 901 -180 1772 -589 2493 -1170 70 -57 138 -114 152 -127 14 -12 52
-46 86 -74 64 -53 365 -354 449 -448 49 -55 152 -175 168 -195 4 -5 19 -23 33
-40 63 -74 236 -311 324 -444 174 -261 346 -574 479 -871 113 -253 250 -652
320 -935 35 -141 45 -187 66 -295 36 -181 76 -473 90 -651 23 -289 23 -768 0
-954 -2 -16 -7 -64 -10 -105 -3 -41 -10 -106 -16 -145 -5 -38 -12 -89 -15
-111 -3 -23 -7 -52 -9 -65 -3 -13 -7 -41 -10 -64 -4 -22 -13 -71 -20 -110 -8
-38 -17 -86 -20 -105 -3 -19 -18 -82 -32 -140 -13 -58 -26 -113 -28 -123 -30
-149 -203 -658 -292 -857 -9 -19 -29 -64 -45 -100 -194 -435 -471 -885 -782
-1270 -67 -83 -71 -88 -212 -245 -613 -684 -1421 -1234 -2289 -1558 -276 -103
-670 -215 -885 -253 -14 -2 -48 -9 -76 -15 -28 -5 -64 -12 -80 -15 -16 -2 -40
-7 -54 -9 -14 -3 -45 -7 -70 -10 -25 -3 -57 -8 -71 -10 -34 -6 -78 -12 -164
-20 -38 -4 -77 -9 -86 -10 -145 -27 -944 -26 -1119 0 -14 2 -56 7 -95 10 -38
3 -92 10 -120 15 -27 5 -72 12 -100 15 -27 3 -59 8 -70 10 -11 3 -38 7 -60 10
-22 3 -82 15 -135 26 -52 11 -106 22 -120 24 -150 28 -509 132 -726 211 -583
210 -1160 532 -1639 915 -162 129 -161 127 -289 244 -288 260 -531 526 -757
828 -54 73 -102 137 -107 142 -17 21 -181 274 -224 345 -117 194 -244 436
-326 620 -11 25 -32 72 -47 105 -66 149 -188 489 -231 640 -43 154 -56 202
-60 225 -3 14 -11 48 -19 75 -26 96 -86 408 -100 525 -3 25 -7 59 -10 75 -9
61 -14 102 -20 180 -3 44 -8 90 -10 102 -22 132 -22 726 -1 948 2 17 6 62 10
100 36 375 120 793 232 1153 45 146 123 369 148 427 8 17 35 82 61 145 68 164
255 529 364 708 145 242 316 484 490 697 65 79 80 96 176 204 55 62 365 373
435 437 96 86 307 259 414 338 113 85 361 256 370 256 2 0 31 17 63 38 32 22
84 54 117 71 32 18 82 47 110 63 54 33 420 218 430 218 3 0 34 13 68 29 267
121 776 289 1048 345 14 3 36 7 50 11 22 4 269 51 325 61 27 4 246 32 315 39
118 13 140 14 285 21 83 3 151 7 152 8 6 5 425 -2 523 -8z"/>
<path d="M8828 16286 c-1 -2 -95 -6 -208 -10 -113 -3 -223 -8 -245 -11 -22 -2
-67 -7 -100 -10 -64 -6 -151 -16 -175 -21 -8 -1 -23 -3 -32 -3 -17 -1 -18 -18
-18 -206 l0 -206 455 -224 455 -224 -1 -328 c0 -458 0 -465 9 -460 8 6 29 9
217 37 56 8 183 20 256 24 22 1 34 8 38 21 5 15 7 1515 2 1571 -1 7 -7 11 -13
11 -7 -1 -49 2 -93 7 -44 4 -98 9 -120 12 -22 2 -121 6 -220 9 -99 4 -185 8
-192 10 -6 2 -13 2 -15 1z"/>
<path d="M9889 16153 c-1 -36 -1 -1427 0 -1473 l1 -35 68 -3 c37 -1 101 -7
142 -12 41 -5 98 -12 125 -16 28 -3 80 -11 118 -18 l67 -13 0 394 0 393 383
189 382 189 -70 32 c-199 91 -348 150 -550 218 -115 39 -373 115 -425 126 -53
11 -206 46 -222 52 -14 4 -18 -1 -19 -23z"/>
<path d="M7497 16119 c-81 -21 -182 -48 -222 -60 l-75 -22 0 -313 0 -314 455
-227 454 -227 0 -314 c0 -173 2 -317 5 -319 3 -3 45 11 93 32 48 20 144 57
212 81 68 23 126 46 130 49 3 4 6 148 6 321 l0 315 -435 215 c-239 118 -442
218 -450 223 -13 7 -16 55 -20 302 l-5 295 -148 -37z"/>
<path d="M6710 15859 c-128 -52 -428 -201 -580 -288 -240 -138 -490 -307 -695
-470 -62 -49 -103 -84 -250 -211 -65 -56 -407 -401 -443 -448 l-34 -42 461 0
460 0 225 -447 224 -448 438 -2 439 -3 90 88 c90 87 134 126 215 192 24 19 48
40 54 45 43 39 227 170 318 226 36 22 68 46 70 52 2 7 4 145 3 307 l0 295
-448 225 c-246 124 -451 230 -455 237 -4 6 -7 171 -6 367 1 196 -2 356 -5 355
-3 0 -40 -14 -81 -30z"/>
<path d="M11205 15315 l-390 -194 0 -318 0 -318 130 -46 c72 -26 172 -65 223
-87 l92 -40 1 42 c0 22 1 167 1 322 l1 281 266 133 c146 74 268 134 271 135 3
1 36 17 74 37 l70 35 -79 53 c-127 86 -248 160 -259 159 -6 0 -187 -88 -401
-194z"/>
<path d="M11975 14862 l-310 -157 0 -290 c0 -159 1 -297 3 -305 2 -8 42 -40
89 -70 107 -68 270 -190 388 -289 86 -72 338 -318 400 -391 239 -279 404 -525
549 -820 31 -63 61 -123 66 -132 20 -36 108 -267 143 -373 64 -197 84 -271
117 -440 6 -27 12 -61 15 -75 16 -75 40 -276 51 -420 12 -159 6 -550 -11 -653
-2 -12 -9 -65 -15 -117 -7 -52 -14 -104 -16 -115 -2 -11 -9 -47 -15 -80 -72
-408 -239 -849 -465 -1231 -68 -114 -190 -300 -231 -349 -4 -6 -42 -53 -84
-105 -231 -289 -525 -558 -839 -769 -69 -46 -129 -88 -134 -92 -10 -9 -15
-594 -6 -609 3 -4 146 -78 318 -164 l312 -156 118 104 c893 787 1501 1840
1736 3007 26 124 59 338 72 454 3 33 8 74 10 90 12 95 19 273 19 525 0 343 -8
468 -46 745 -5 39 -12 88 -15 110 -8 64 -62 331 -90 445 -141 584 -393 1162
-730 1678 -87 132 -233 336 -293 408 -14 17 -44 52 -66 79 -142 174 -448 490
-600 620 -38 33 -78 68 -89 78 -11 9 -25 17 -30 16 -6 0 -150 -71 -321 -157z"/>
<path d="M9357 14234 c-1 -1 -31 -5 -67 -8 -36 -4 -72 -8 -80 -11 -8 -2 -37
-6 -64 -10 -63 -8 -176 -31 -182 -38 -4 -4 -7 -713 -4 -1328 l0 -107 206 -233
c114 -129 228 -258 256 -288 l49 -53 0 -1315 -1 -1315 -37 -42 c-58 -64 -83
-92 -209 -236 -143 -162 -166 -188 -221 -249 -25 -27 -43 -56 -43 -71 -3 -97
0 -1413 3 -1416 14 -14 386 -66 491 -68 l30 -1 0 368 c1 203 -1 373 -4 377 -3
5 -19 9 -35 8 -65 -1 -60 -29 -60 332 l0 330 300 0 300 0 0 -330 0 -330 -37
-1 c-21 -1 -43 -2 -50 -3 -8 -1 -11 -94 -10 -361 0 -198 1 -368 1 -378 1 -16
7 -18 44 -13 23 3 74 8 112 11 64 6 254 35 333 51 l32 6 0 720 0 720 -92 106
c-51 58 -102 115 -113 127 -11 11 -49 54 -85 94 -36 41 -69 79 -75 85 -5 6
-40 46 -78 88 l-67 77 -1 1312 c0 1099 3 1314 14 1328 8 9 71 81 142 161 70
80 153 174 184 209 31 34 65 73 76 85 11 12 37 42 58 65 l37 44 0 718 0 718
-37 10 c-21 5 -56 12 -78 16 -22 3 -67 10 -100 15 -179 28 -305 36 -306 18 0
-7 -1 -138 -2 -291 -2 -309 -9 -282 66 -278 15 0 28 -4 28 -11 1 -7 2 -158 3
-334 l1 -322 -300 2 -300 1 0 330 0 330 43 0 c24 0 46 6 50 12 5 8 8 523 3
566 -1 6 -117 7 -124 1z"/>
<path d="M8468 14025 c-84 -33 -118 -48 -280 -122 l-78 -36 0 -101 c0 -56 -1
-364 -1 -684 l0 -584 48 -56 c26 -32 50 -59 54 -62 3 -3 59 -66 124 -140 150
-172 223 -254 258 -292 l27 -30 0 -1075 0 -1074 -72 -82 c-40 -45 -77 -87 -82
-93 -6 -6 -22 -24 -36 -40 -14 -16 -92 -105 -173 -197 l-147 -168 0 -157 c-1
-134 -1 -918 0 -1140 l0 -73 113 -53 c122 -58 280 -123 312 -128 19 -3 19 6
20 733 l0 735 41 45 c48 51 79 85 114 125 79 91 337 381 347 392 10 11 13 253
13 1173 l0 1159 -27 32 c-16 17 -86 97 -157 177 -71 80 -145 164 -165 187 -20
22 -63 71 -96 108 -33 38 -63 76 -66 85 -3 9 -5 343 -5 744 1 400 1 727 1 726
0 0 -39 -15 -87 -34z"/>
<path d="M10819 14056 c-1 0 -3 -329 -4 -731 -1 -401 -3 -734 -4 -740 -1 -5
-16 -26 -34 -45 -18 -19 -82 -91 -142 -160 -60 -69 -124 -141 -141 -160 -17
-19 -55 -62 -84 -95 -29 -33 -65 -74 -81 -92 l-28 -31 0 -1158 c0 -1147 0
-1158 20 -1183 12 -14 37 -44 57 -66 20 -22 64 -72 97 -110 33 -39 67 -77 76
-85 9 -8 47 -51 85 -95 38 -44 86 -99 108 -122 77 -85 71 -7 71 -815 0 -399 3
-729 6 -732 8 -8 201 69 337 134 85 41 102 53 103 72 5 198 0 1338 -7 1350 -5
9 -38 49 -74 89 -99 112 -160 181 -189 214 -68 79 -169 194 -203 230 l-38 40
0 1074 0 1073 26 32 c15 17 54 62 88 100 33 39 83 95 110 125 27 31 63 72 80
91 17 19 60 69 96 110 35 41 75 86 87 99 13 13 23 31 24 40 1 21 1 1299 0
1332 -1 23 -13 32 -103 74 -90 43 -336 145 -339 141z"/>
<path d="M4346 13936 c-24 -33 -80 -118 -125 -188 l-81 -128 563 0 562 0 225
-450 225 -450 327 0 326 0 53 88 c28 48 80 128 113 177 34 50 65 96 69 102 6
10 -57 12 -285 12 -161 0 -337 1 -390 1 l-97 0 -224 448 -225 447 -496 1 -497
2 -43 -62z"/>
<path d="M7616 13549 c-43 -33 -84 -65 -91 -72 -6 -7 -39 -34 -71 -61 -89 -75
-291 -280 -376 -381 -175 -210 -321 -432 -438 -664 -53 -106 -153 -339 -168
-392 -5 -19 -13 -41 -16 -50 -6 -14 27 -16 329 -16 375 0 339 -7 337 70 l-1
27 77 1 c42 0 192 0 332 1 l255 0 0 -299 0 -298 -330 0 -330 0 -1 45 0 45
-391 3 -391 2 -12 -72 c-6 -40 -14 -86 -16 -103 -3 -16 -7 -48 -9 -70 -2 -22
-7 -60 -9 -85 -3 -25 -7 -65 -8 -90 l-3 -45 418 0 417 0 1 25 c1 14 0 35 -1
48 -1 15 4 22 17 23 24 1 613 1 634 0 15 -1 16 -31 16 -301 l0 -300 -333 0
-332 1 0 37 c0 20 0 43 -1 50 -1 9 -92 12 -420 12 l-420 0 4 -22 c2 -13 6 -57
10 -98 10 -127 41 -329 51 -340 3 -2 178 -5 390 -5 334 0 384 2 385 15 1 8 1
29 1 45 0 17 4 32 8 35 5 3 154 5 332 5 l323 0 1 -301 1 -301 -331 1 -331 1 0
48 0 47 -65 1 c-83 0 -581 0 -597 0 -21 -1 59 -213 154 -409 207 -427 489
-792 852 -1105 104 -90 218 -177 230 -177 3 0 6 282 6 628 l-1 627 95 110 c53
61 100 115 106 121 29 31 87 97 145 164 36 41 77 88 92 105 14 16 37 43 51 58
l24 28 0 920 0 920 -29 37 c-16 20 -37 44 -46 53 -10 9 -28 29 -42 45 -30 36
-151 175 -165 190 -17 19 -67 76 -140 159 -38 44 -74 83 -80 87 -6 5 -10 230
-10 637 0 346 -3 632 -5 634 -3 3 -40 -22 -84 -54z"/>
<path d="M11669 13604 c-1 -5 -2 -288 -2 -629 -1 -393 -6 -626 -12 -637 -5 -9
-24 -31 -40 -50 -17 -18 -100 -112 -184 -208 -85 -96 -181 -206 -215 -244
l-61 -69 -1 -922 -1 -922 41 -48 c23 -26 138 -158 257 -293 l215 -246 0 -633
c-1 -348 0 -633 1 -633 1 0 46 34 100 76 491 382 861 874 1088 1447 53 134 67
177 57 177 -11 1 -346 1 -498 1 l-140 -1 0 -47 1 -48 -333 -1 -333 -1 3 301 3
301 330 0 330 -1 0 -47 c-1 -26 4 -48 10 -48 35 -4 728 -3 735 1 5 3 11 19 14
35 28 163 29 171 40 290 4 44 10 92 12 108 l4 27 -407 -2 -408 -3 -1 -35 c-1
-19 -2 -41 -3 -47 -1 -10 -74 -13 -331 -13 l-329 0 -1 300 c0 234 3 300 12
301 18 1 608 1 635 0 20 -1 22 -6 19 -46 -2 -25 2 -46 8 -48 6 -2 189 -3 406
-3 l395 1 -2 25 c-7 117 -18 210 -40 343 l-16 97 -372 0 c-290 0 -374 -3 -377
-12 -2 -7 -4 -30 -3 -50 l0 -38 -332 0 -332 0 -1 300 0 300 23 0 c12 1 162 1
332 1 l310 1 1 -43 c1 -24 2 -47 3 -50 1 -6 622 -9 633 -3 8 5 -34 125 -92
261 -87 204 -232 462 -367 653 -166 233 -462 540 -678 702 -14 10 -66 51 -87
67 -10 7 -18 10 -19 5z"/>
<path d="M3900 13165 c-12 -27 -26 -59 -32 -70 -14 -26 -118 -273 -118 -281 0
0 245 -2 545 -2 300 0 549 -1 555 -1 5 -1 109 -203 231 -449 l222 -449 362 0
363 0 28 91 c15 50 46 139 69 198 27 68 38 108 31 111 -6 2 -163 3 -349 2
l-337 0 -221 440 c-122 242 -225 444 -231 450 -6 6 -204 10 -553 10 l-544 0
-21 -50z"/>
<path d="M3586 12328 c-29 -97 -46 -163 -52 -198 -3 -14 -9 -38 -14 -55 -9
-30 -26 -114 -46 -225 -4 -19 -8 -44 -10 -55 -11 -54 -34 -207 -40 -260 -3
-33 -8 -67 -9 -76 -6 -32 -26 -285 -28 -349 l-2 -65 1248 0 c1108 0 1247 1
1247 15 2 64 24 264 46 413 l6 37 -439 0 -438 0 -224 450 -225 450 -497 0
-498 0 -25 -82z"/>
<path d="M3385 10588 c2 -29 7 -91 10 -138 7 -120 14 -189 31 -315 8 -60 17
-125 20 -144 15 -110 87 -452 119 -561 2 -8 12 -42 21 -75 9 -33 20 -65 24
-70 9 -11 978 -14 995 -3 6 4 109 206 230 450 l220 443 438 0 439 0 -6 40 c-4
22 -9 58 -11 80 -3 22 -7 51 -10 65 -7 42 -21 180 -24 253 l-1 27 -1249 0
-1250 0 4 -52z"/>
<path d="M5350 9772 l-46 -3 -224 -448 -223 -449 -549 0 c-302 0 -551 -2 -554
-4 -5 -6 86 -224 153 -365 l15 -33 549 0 549 0 225 450 225 450 350 0 350 0
-22 53 c-11 28 -43 117 -71 197 -27 80 -51 147 -53 148 -3 5 -613 8 -674 4z"/>
<path d="M5693 8915 c-14 -27 -116 -230 -227 -449 l-201 -400 -562 0 -562 0
21 -36 c12 -19 66 -104 121 -187 85 -132 103 -153 126 -154 87 -3 972 -1 975
2 2 2 101 200 220 439 120 239 222 440 227 445 6 6 151 11 387 12 207 0 380 2
384 2 5 1 -29 56 -75 124 -45 67 -100 151 -121 188 l-38 65 -325 0 -325 0 -25
-51z"/>
<path d="M5854 7734 l-226 -450 -455 0 c-250 1 -456 -1 -458 -5 -2 -3 40 -52
93 -109 272 -292 495 -492 796 -714 100 -75 328 -229 361 -246 13 -6 205 -118
225 -131 28 -17 365 -184 430 -213 36 -15 79 -34 95 -41 17 -8 42 -18 56 -23
l25 -10 0 366 -1 366 450 224 c248 123 452 228 455 232 3 4 5 142 5 306 l0
297 -155 105 c-85 57 -157 107 -160 111 -3 3 -39 33 -80 66 -122 97 -189 157
-298 264 l-55 55 -438 0 -438 1 -227 -451z"/>
<path d="M8109 7163 c0 -115 -1 -259 -2 -322 l-2 -114 -453 -226 -452 -226 2
-313 3 -314 40 -13 c42 -14 222 -64 253 -70 9 -1 45 -10 78 -19 34 -9 65 -16
68 -16 3 0 6 132 6 293 l0 293 453 225 452 224 0 319 0 319 -60 19 c-33 10
-69 23 -80 27 -11 5 -67 27 -125 49 -58 22 -122 47 -142 56 l-38 16 -1 -207z"/>
<path d="M11165 7332 c-44 -20 -141 -57 -215 -83 l-135 -47 0 -318 0 -319 398
-197 398 -198 140 90 c77 49 151 98 165 109 l26 20 -339 169 -338 169 -2 274
c-2 378 -2 369 -10 368 -5 -1 -44 -17 -88 -37z"/>
<path d="M8960 7023 c-1 -43 -2 -220 -3 -393 l-2 -315 -452 -224 -452 -225 -1
-202 c-1 -228 -8 -208 83 -218 26 -3 66 -8 90 -11 146 -19 363 -29 607 -29
241 0 367 6 585 28 l70 8 0 799 0 799 -40 1 c-92 2 -346 32 -457 55 l-28 6 0
-79z"/>
<path d="M10340 7090 c-84 -15 -105 -18 -160 -26 -82 -10 -107 -13 -200 -20
-47 -3 -87 -8 -89 -10 -7 -6 -5 -1514 2 -1520 7 -7 231 44 387 87 266 75 598
196 800 292 l95 45 -383 188 -382 188 0 393 c0 308 -3 393 -12 392 -7 -1 -33
-5 -58 -9z"/>
<path d="M1449 3956 c-2 -2 -41 -7 -87 -10 -270 -21 -563 -122 -757 -260 -172
-123 -333 -318 -417 -504 -58 -131 -125 -349 -144 -472 -3 -19 -9 -62 -15 -95
-13 -85 -23 -233 -23 -350 0 -103 12 -313 18 -324 2 -3 6 -30 10 -59 20 -168
96 -435 167 -590 116 -249 329 -452 596 -566 100 -43 267 -90 388 -110 266
-45 626 -37 860 18 11 2 40 9 65 15 312 72 620 271 789 512 123 173 221 434
247 655 3 23 7 53 10 65 18 89 26 522 12 674 -24 270 -86 511 -178 697 -93
186 -192 303 -386 457 -33 27 -181 103 -260 134 -93 37 -261 82 -349 93 -27 3
-61 8 -75 10 -32 6 -466 15 -471 10z m271 -420 c115 -7 193 -21 285 -51 285
-93 454 -271 539 -568 34 -118 53 -229 72 -427 7 -78 8 -395 0 -465 -3 -27 -8
-78 -11 -112 -3 -34 -8 -72 -11 -85 -2 -13 -9 -54 -15 -93 -26 -167 -110 -347
-212 -457 -174 -187 -411 -272 -762 -272 -441 -1 -720 134 -878 424 -116 211
-162 456 -162 855 1 615 138 945 468 1129 132 74 312 120 484 125 43 1 79 4
81 6 2 1 11 1 20 -1 9 -1 55 -5 102 -8z"/>
<path d="M6158 3912 l-48 -3 0 -440 c0 -241 -3 -439 -7 -440 -5 0 -107 -1
-228 -2 l-220 -2 -1 -187 -2 -188 42 0 c22 -1 125 0 229 0 l187 1 1 -708 c1
-728 1 -740 13 -833 27 -205 114 -339 271 -415 95 -47 188 -57 553 -59 l332
-2 0 188 c0 143 -3 188 -12 189 -7 0 -114 2 -238 4 -124 2 -236 6 -249 9 -92
21 -142 55 -167 113 -8 18 -17 65 -20 105 -7 81 -12 1375 -6 1396 3 9 20 13
51 12 25 -1 180 -1 344 -1 l297 1 -2 188 -3 187 -340 0 c-320 0 -340 1 -345
18 -3 10 -5 209 -4 443 0 292 -3 424 -10 424 -66 3 -382 4 -418 2z"/>
<path d="M11938 3912 l-58 -3 0 -87 c-1 -100 -1 -2228 0 -2802 l0 -386 238 1
237 0 0 1638 0 1637 -55 0 c-30 1 -111 2 -180 3 -69 1 -151 1 -182 -1z"/>
<path d="M15429 3909 c-5 -3 -8 -669 -7 -1640 l3 -1634 560 1 c308 0 607 3
665 7 323 22 517 93 670 246 129 129 204 271 260 491 39 156 45 223 44 500 0
266 -12 351 -70 526 -89 265 -286 477 -521 558 -71 25 -86 29 -178 42 -27 3
-59 9 -70 11 -11 3 -207 7 -435 8 -228 2 -424 4 -435 4 -20 1 -20 8 -20 441
l0 440 -65 1 c-36 0 -139 1 -228 2 -90 1 -168 -1 -173 -4z m1284 -1288 c305
-82 427 -308 428 -791 2 -484 -143 -743 -446 -796 -22 -3 -49 -9 -60 -11 -11
-3 -182 -7 -380 -9 l-360 -3 1 802 c1 441 2 810 3 820 1 18 16 19 369 14 333
-4 374 -7 445 -26z"/>
<path d="M8320 3034 c-338 -46 -569 -181 -753 -440 -107 -149 -192 -395 -215
-617 -11 -109 -7 -362 7 -447 16 -95 51 -231 64 -247 5 -7 7 -13 4 -13 -13 0
85 -182 133 -245 146 -194 364 -323 639 -381 112 -23 188 -29 361 -29 208 0
300 11 445 51 301 85 538 284 664 558 160 347 150 920 -21 1261 -31 62 -93
160 -115 183 -7 7 -18 21 -25 30 -22 29 -135 128 -184 161 -108 74 -241 128
-399 163 -120 26 -451 33 -605 12z m386 -387 c5 -3 25 -8 46 -11 164 -26 339
-150 422 -299 80 -143 108 -270 112 -497 3 -175 -8 -276 -44 -390 -69 -219
-213 -358 -432 -415 -91 -24 -128 -28 -265 -28 -469 -1 -709 269 -709 798 0
311 67 516 219 670 40 41 81 75 89 75 9 0 16 3 16 8 0 22 152 73 285 95 31 5
251 0 261 -6z"/>
<path d="M4097 3024 c-1 -1 -38 -4 -82 -7 -255 -19 -428 -110 -539 -286 -72
-114 -101 -231 -101 -411 0 -144 14 -224 56 -320 88 -207 248 -353 412 -377
18 -2 43 -6 57 -9 52 -9 267 -15 620 -19 242 -2 378 -7 405 -15 53 -16 110
-75 126 -130 8 -25 14 -91 14 -150 0 -97 -3 -110 -30 -165 -34 -69 -77 -98
-160 -110 -27 -4 -365 -9 -750 -11 -385 -1 -707 -3 -715 -3 -14 -1 -16 -26
-15 -188 l0 -188 755 1 c864 1 920 3 1035 43 166 59 276 178 333 362 30 98 37
159 36 329 0 125 -5 171 -22 240 -47 182 -134 307 -252 362 -92 43 -168 48
-715 53 -220 2 -422 6 -450 9 -129 15 -212 62 -236 134 -21 60 -17 236 6 306
23 73 82 139 140 156 42 13 422 20 1091 20 l341 0 -1 188 -1 187 -678 1 c-372
0 -678 -1 -680 -2z"/>
<path d="M10123 1831 l2 -1196 235 0 235 0 1 982 c1 541 5 990 8 999 5 13 27
15 148 13 384 -7 457 -84 464 -484 1 -99 3 -185 3 -190 1 -12 419 -14 437 -3
15 10 8 446 -10 528 -1 8 -6 37 -11 64 -24 151 -119 287 -259 370 -82 49 -167
76 -286 92 -25 3 -56 8 -70 11 -14 2 -221 6 -462 8 l-436 3 1 -1197z"/>
<path d="M12809 3001 c-6 -150 -2 -344 6 -347 6 -2 312 -6 680 -8 369 -1 681
-6 695 -9 14 -4 39 -9 55 -12 49 -10 114 -46 145 -82 46 -51 70 -152 77 -312
l6 -137 -479 -1 c-421 0 -696 -7 -713 -18 -4 -2 -24 -6 -46 -9 -192 -30 -352
-153 -438 -337 -53 -114 -78 -237 -77 -384 1 -79 2 -92 15 -168 28 -165 138
-328 284 -422 84 -53 128 -70 232 -89 152 -27 208 -29 957 -30 l743 -2 -2 856
c0 470 -5 884 -10 920 -5 36 -11 81 -13 100 -17 119 -76 240 -160 325 -70 70
-143 112 -251 143 -142 41 -218 45 -977 47 l-728 3 -1 -27z m1661 -1638 l0
-351 -467 3 c-258 1 -482 5 -500 8 -206 36 -284 122 -289 317 -7 237 85 341
322 366 33 4 60 7 61 8 1 0 197 1 437 1 l436 0 0 -352z"/>
</g>
</svg>
